# xmcd CD database file
#
# Track frame offsets:
#	150
#	21932
#	39307
#
# Disc length: 800 seconds
#
# Revision: 8
# Processed by: cddbd v1.5PL3 Copyright (c) Steve Scherf et al.
# Submitted via: CDex 1.51
#
DISCID=1a031e03
DTITLE=寺門仁美(宝生波音) - Ever Blue
DYEAR=2004
DGENRE=Anime
TTITLE0=Ever Bule
TTITLE1=Super Love Songs! 波音ソロバージョン
TTITLE2=Legend of Mermaid 波音ソロバージョン
EXTD=YEAR: 2004
EXTT0=
EXTT1=
EXTT2=
PLAYORDER=
